<!DOCTYPE svg PUBLIC "-//W3C//DTD SVG 1.1//EN" "http://www.w3.org/Graphics/SVG/1.1/DTD/svg11.dtd">
<!-- Uploaded to: SVG Repo, www.svgrepo.com, Transformed by: SVG Repo Mixer Tools -->
<svg height="800px" width="800px" version="1.1" id="Layer_1" xmlns="http://www.w3.org/2000/svg" xmlns:xlink="http://www.w3.org/1999/xlink" viewBox="0 0 512 512" xml:space="preserve" fill="#000000">
<g id="SVGRepo_bgCarrier" stroke-width="0"/>
<g id="SVGRepo_tracerCarrier" stroke-linecap="round" stroke-linejoin="round"/>
<g id="SVGRepo_iconCarrier"> <circle style="fill:#F7B239;" cx="255.933" cy="256" r="239.272"/> <path style="fill:#E09B2D;" d="M130.225,381.705c-86.074-86.074-92.857-221.409-20.354-315.25 c-8.031,6.204-15.759,12.987-23.125,20.354c-93.44,93.44-93.44,244.936,0,338.375s244.936,93.44,338.375,0 c7.366-7.366,14.148-15.094,20.354-23.125C351.633,474.562,216.298,467.779,130.225,381.705z"/> <g> <circle style="fill:#A6DAF7;" cx="150.019" cy="256" r="75.515"/> <circle style="fill:#A6DAF7;" cx="361.988" cy="256" r="75.515"/> </g> <g> <circle style="fill:#666666;" cx="150.019" cy="256" r="23.944"/> <circle style="fill:#666666;" cx="361.846" cy="256" r="23.944"/> </g> <g> <path style="fill:#4D4D4D;" d="M255.933,389.757c-20.954,0-41.909-7.977-57.862-23.928c-3.465-3.463-3.465-9.078-0.001-12.541 c3.465-3.463,9.08-3.465,12.541,0c24.991,24.989,65.652,24.989,90.639,0c3.465-3.463,9.079-3.463,12.542,0 c3.463,3.463,3.463,9.079,0,12.541C297.843,381.78,276.888,389.757,255.933,389.757z"/> <path style="fill:#4D4D4D;" d="M503.132,247.128h-57.232c-4.447-42.375-40.38-75.513-83.914-75.513s-79.466,33.139-83.914,75.513 h-44.144c-4.447-42.375-40.38-75.513-83.915-75.513c-43.532,0-79.466,33.139-83.914,75.513H8.868c-4.899,0-8.868,3.971-8.868,8.868 s3.97,8.868,8.868,8.868H66.1c4.447,42.375,40.38,75.515,83.914,75.515s79.468-33.139,83.915-75.515h44.144 c4.447,42.375,40.38,75.515,83.914,75.515s79.466-33.139,83.914-75.515h57.232c4.899,0,8.868-3.971,8.868-8.868 S508.03,247.128,503.132,247.128z M150.013,322.643c-36.749,0-66.645-29.897-66.645-66.646s29.896-66.645,66.645-66.645 s66.646,29.897,66.646,66.645C216.661,292.745,186.762,322.643,150.013,322.643z M361.985,322.643 c-36.749,0-66.645-29.897-66.645-66.646s29.896-66.645,66.645-66.645s66.645,29.897,66.645,66.645 C428.63,292.745,398.734,322.643,361.985,322.643z"/> </g> </g>
</svg>